<?xml version="1.0" encoding="utf-8"?>
<!-- Generator: Adobe Illustrator 18.0.0, SVG Export Plug-In . SVG Version: 6.00 Build 0)  -->
<!DOCTYPE svg PUBLIC "-//W3C//DTD SVG 1.1//EN" "http://www.w3.org/Graphics/SVG/1.1/DTD/svg11.dtd">
<svg version="1.1" id="Layer_1" xmlns="http://www.w3.org/2000/svg" xmlns:xlink="http://www.w3.org/1999/xlink" x="0px" y="0px"
	 viewBox="0 0 1400 980" enable-background="new 0 0 1400 980" xml:space="preserve">
<g>
	<rect fill="#D5E8BD" width="1400" height="980"/>
	<g>
		<g>
			<path fill="#4F7950" d="M807.9,211.3c-24-6.4-46.5-10-64.8-12.4l-67.2,76l45.5-78.7c-4.6-0.6-8.7-1.1-12-1.7
				c-17.7-3-31.8-27.8-67.2-33.9c-27.1-4.6-54.4,6-75.5,4.3l-73.3,71.1l56-76.9c-0.1-0.1-0.2-0.1-0.3-0.2
				c-21.6-15.9-7.7-37.8-17.9-49.7c-10.1-11.9-29.6-5.1-44.3-25.9c-1.5-2.1-2.9-4.1-4.2-5.9L372,112.9l102-48.5
				c-6.9-10.7-12.3-21.1-19.7-39.6c-4.1-10.3-22.2-18.7-45-24.9H288.6c-10.9,17-29.9,53.2-27.3,97.3c3,50.3,25.3,108.9,69,137.3
				c5.6,3.7,11.6,6.9,17.4,10.3l41.9-50.7l-22.3,65.3c16.7,17.2,23.3,43.4,42.8,57.3c4.1,2.9,8.4,5.1,13,6.8l30.9-80.3L434.4,327
				c4,1,8,1.8,12.1,2.6l17.6-81.3l-11,82.5c5.5,1.1,11,2.2,16.3,3.9c38,11.5,67.7,36,109.6,29c20.4-3.4,36.7-9,53.8-12.1
				c6.3-23.9,14.2-53.4,14.2-53.4l-5,52c10.6-1.3,21.7-1.3,34.5,0.9c37.5,6.4,62.3,2,94.3,6c16.4,2.1,36.2-3.7,54.5-14l-31.4-52.4
				l41.3,46.3c28.3-19,50.2-48.1,45.1-73.2C880.2,263.8,850.6,222.7,807.9,211.3z"/>
			<path fill="#5B895C" d="M326.1,64.6l49.9,74.2l131.2-40.5c-6.9-2.4-14.1-6.3-20.3-15.1c-1.5-2.1-2.9-4.1-4.2-5.9L372,112.9
				l102-48.5c-6.9-10.7-12.3-21.1-19.7-39.6c-0.6-1.4-1.4-2.8-2.5-4.2L326.1,64.6z"/>
			<path fill="#759964" d="M549.1,158.8c-10.4-7.6-12.6-16.6-13.2-25.2l-91.1,89l62.1,33.2l68.8,18l83.8-108.3
				c-5.2-2.1-10.9-3.8-17.3-4.9c-27.1-4.6-54.4,6-75.5,4.3l-73.3,71.1l56-76.9C549.3,158.9,549.2,158.9,549.1,158.8z"/>
			<g>
				<path fill="#759964" d="M575.7,273.7l-25.5,90.1c3.8,0.6,7.6,0.9,11.5,1l24.4-86.3L575.7,273.7z"/>
				<path fill="#759964" d="M540,361.7l22.2-87.3l-59.4-24.6l-21.4,88.9C501.6,346.5,520,356.7,540,361.7z"/>
				<path fill="#5B895C" d="M636.8,288.3l-14-2.4l-21.6,73c6.8-1.7,13.4-3.4,19.8-4.9L636.8,288.3z"/>
			</g>
			<path fill="#759964" d="M700.9,285.9L730,355c13.3,0.1,26.3,0.2,40.8,2.1c4.9,0.6,10.2,0.5,15.6-0.2l-42.9-67.8l45.1-5.6
				l48.2-59.5c-8.7-5.3-18.3-9.9-28.8-12.7c-9.6-2.6-19-4.7-28-6.4C749.7,236.1,700.9,285.9,700.9,285.9z"/>
			<path fill="#CFCF86" d="M456.3,218C392.1,171.5,344.5,82.1,312,0h-32.7c69,168,168.6,231,168.6,231
				c185.9,120.7,432.4,32.8,432.4,32.8S615.8,333.5,456.3,218z"/>
		</g>
		<g>
			<path fill="#3E6441" d="M367.3,698.9L345,764.1c16.7,17.2,23.3,43.4,42.8,57.3c4.1,2.9,8.4,5.1,13,6.8l30.9-80.3l-19.6,83.7
				c4,1,8,1.8,12.1,2.6l17.6-81.3l-11,82.5c5.5,1.1,11,2.2,16.3,3.9c38,11.5,67.7,36,109.6,29c20.4-3.4,36.7-9,53.8-12.1
				c6.3-23.9,14.2-53.4,14.2-53.4l-5,52c10.6-1.3,21.7-1.3,34.5,0.9c37.5,6.4,62.3,2,94.3,6c16.4,2.1,36.2-3.7,54.5-14l-31.4-52.4
				l41.3,46.3c28.3-19,50.2-48.1,45.1-73.2c0,0-29.6-41.1-72.3-52.5c-24-6.4-46.5-10-64.8-12.4l-67.2,76l45.5-78.7
				c-4.6-0.6-8.7-1.1-12-1.7c-17.7-3-31.8-27.8-67.2-33.9c-27.1-4.6-54.4,6-75.5,4.3l-73.3,71.1l56-76.9c-0.1-0.1-0.2-0.1-0.3-0.2
				c-21.6-15.9-7.7-37.8-17.9-49.7c-10.1-11.9-29.6-5.1-44.3-25.9c-1.5-2.1-2.9-4.1-4.2-5.9l-110.8,35.6l102-48.5
				c-6.9-10.7-12.3-21.1-19.7-39.6c-11.4-28.3-128.7-42.4-158.3-35.3c0,0-38.4,46.2-34.7,107.7c3,50.3,25.3,108.9,69,137.3
				c5.6,3.7,11.6,6.9,17.4,10.3L367.3,698.9z"/>
			<path fill="#5B895C" d="M303.9,569.3l49.9,74.2L485,603c-6.9-2.4-14.1-6.3-20.3-15.1c-1.5-2.1-2.9-4.1-4.2-5.9l-110.8,35.6
				l102-48.5c-6.9-10.7-12.3-21.1-19.7-39.6c-0.6-1.4-1.4-2.8-2.5-4.2L303.9,569.3z"/>
			<path fill="#759964" d="M526.8,663.5c-10.4-7.6-12.6-16.6-13.2-25.2l-91.1,89l62.1,33.2l68.8,18l83.8-108.3
				c-5.2-2.1-10.9-3.8-17.3-4.9c-27.1-4.6-54.4,6-75.5,4.3l-73.3,71.1l56-76.9C527,663.6,526.9,663.5,526.8,663.5z"/>
			<g>
				<path fill="#759964" d="M553.4,778.4l-25.5,90.1c3.8,0.6,7.6,0.9,11.5,1l24.4-86.3L553.4,778.4z"/>
				<path fill="#759964" d="M517.7,866.4l22.2-87.3l-59.4-24.6l-21.4,88.9C479.3,851.1,497.7,861.3,517.7,866.4z"/>
				<path fill="#5B895C" d="M614.5,793l-14-2.4l-21.6,73c6.8-1.7,13.4-3.4,19.8-4.9L614.5,793z"/>
			</g>
			<path fill="#759964" d="M678.6,790.6l29.1,69.1c13.3,0.1,26.3,0.2,40.8,2.1c4.9,0.6,10.2,0.5,15.6-0.2l-42.9-67.8l45.1-5.6
				l48.2-59.5c-8.7-5.3-18.3-9.9-28.8-12.7c-9.6-2.6-19-4.7-28-6.4C727.4,740.7,678.6,790.6,678.6,790.6z"/>
			<path fill="#CFCF86" d="M857.9,768.5c0,0-264.4,69.7-423.9-45.8c-120.4-87.2-182.7-325.8-195.9-383.2
				c-1.6-7.1-8.3-11.7-15.5-10.8h0c-8,1-13.5,8.6-12,16.6c54.6,288.9,215.1,390.4,215.1,390.4C611.5,856.4,857.9,768.5,857.9,768.5z
				"/>
		</g>
		<g>
			<path fill="#4F7950" d="M1400,621.3c-7.6,2.7-14.8,5.3-22.3,7.4c-4,24.4-8.9,54.5-8.9,54.5l-0.1-52.3
				c-10.4,2.3-21.5,3.4-34.5,2.5c-37.9-2.8-62.2,4.1-94.5,3.2c-16.5-0.5-35.7,7.2-52.9,19.2l36.3,49.1l-45.6-42.1
				c-26.3,21.7-45.3,52.7-37.8,77.3c0,0,33.5,38.1,77.1,45.2c24.5,4,47.3,5.4,65.7,6.1l59.5-82.2l-37.6,82.8
				c4.7,0.1,8.8,0.3,12.1,0.5c18,1.3,34.3,24.6,70.2,27.2c4.4,0.3,8.8,0.2,13.1-0.1V621.3z"/>
			<path fill="#759964" d="M1400,767.5l-30.8,49c5.4,1.6,11.2,2.7,17.7,3.2c4.4,0.3,8.8,0.2,13.1-0.1V767.5z"/>
			<g>
				<path fill="#5B895C" d="M1400,621.3c-3.7,1.3-7.3,2.6-10.9,3.8l-9.3,66.9l14.1,1l6.1-31.7V621.3z"/>
			</g>
			<path fill="#759964" d="M1316.2,700.7l-35.7-65.9c-13.3,1.2-26.2,2.3-40.8,1.9c-5-0.1-10.2,0.5-15.5,1.7l49.3,63.3l-44.3,10
				l-42.2,63.9c9.1,4.5,19.2,8.1,29.9,9.8c9.8,1.6,19.4,2.8,28.5,3.7C1272.5,755,1316.2,700.7,1316.2,700.7z"/>
			<path fill="#CFCF86" d="M1400,688c-140.1-4.3-260.1,52.2-260.1,52.2s126.1-46.7,260.1-40.3V688z"/>
		</g>
		<g>
			<path fill="#4F7950" d="M252.2,441.2c0,0-29.6-41.1-72.3-52.5c-24-6.4-46.5-10-64.8-12.4l-67.2,76l45.5-78.7
				c-4.6-0.6-8.7-1.1-12-1.7c-17.7-3-31.8-27.8-67.2-33.9c-4.7-0.8-9.4-1.1-14.1-1.2v193.1c1.6-0.3,3.1-0.6,4.7-0.9
				c6.3-23.9,14.2-53.4,14.2-53.4l-5,52c10.6-1.3,21.7-1.3,34.5,0.9c37.5,6.4,62.3,2,94.3,6c16.4,2.1,36.2-3.7,54.5-14l-31.4-52.4
				l41.3,46.3C235.4,495.4,257.3,466.4,252.2,441.2z"/>
			<path fill="#759964" d="M0,383.5l31.4-40.6c-5.2-2.1-10.9-3.8-17.3-4.9c-4.7-0.8-9.4-1.1-14.1-1.2V383.5z"/>
			<g>
				<polygon fill="#5B895C" points="0,464.2 0,502.4 8.8,465.7 				"/>
			</g>
			<path fill="#759964" d="M72.8,463.3l29.1,69.1c13.3,0.1,26.3,0.2,40.8,2.1c4.9,0.6,10.2,0.5,15.6-0.2l-42.9-67.8l45.1-5.6
				l48.2-59.5c-8.7-5.3-18.3-9.9-28.8-12.7c-9.6-2.6-19-4.7-28-6.4C121.7,413.5,72.8,463.3,72.8,463.3z"/>
			<path fill="#CFCF86" d="M0,457.5v11.7c134.3,14,252.2-28,252.2-28S129,473.7,0,457.5z"/>
		</g>
		<g>
			<g>
				<path fill="#44753F" d="M784.5,601.9c5.7-22,11.8-44,18.3-65.8c-16.8-15-22.2-40.2-39-53.3c-3.5-2.8-7.3-4.9-11.3-6.6
					c-12.2,25.9-24,52-35.5,78.3c7.7-27.6,16.2-54.9,25.6-81.9c-3.5-1.1-7.1-2.1-10.7-3c-9,26.1-17.3,52.6-24.7,79.3
					c5.3-27.3,11.6-54.3,18.9-81c-4.9-1.4-9.8-3-14.4-5.1c-33.3-15.4-53.2-44.9-92-50.7c-19.1-3.1-35.3-3.8-51.5-8
					c-14.1,20.6-30.7,46.8-30.7,46.8c7-16.8,14.4-33.2,22.2-49.4c-9.7-3.5-19.6-8.7-29.7-17.4c-29.4-25.9-51.9-37.4-75.4-64.2
					c-11.9-13.8-30-23.7-49.5-29.6c-1.8,25.6-2.4,51.4-1.8,77.2c-4.3-26.4-7.3-53-9-79.9c-31.6-6.6-64.7-0.9-74.7,29.9
					c-0.4-0.5,0.7,73.1,36.3,121c19.5,26.7,40.2,47,57.5,61.9c30.3-12.2,60.1-25.5,89.5-39.8c-22.8,19-45.6,38-68.6,56.8
					c4.5,3.5,8.5,6.5,11.7,9.1c17.1,13.4,25.7,48.5,63.8,70.6c29.1,16.6,60.6,13.9,83.5,21.2c28.7-18.8,56.4-38.7,83.2-59.7
					c-21,23.7-42.5,47-64.4,69.9c0.1,0.1,0.2,0.2,0.3,0.3c23.6,21,8.1,41.4,20.3,55.8c12.6,14.2,34.7,9.4,54.6,31.6
					c2,2.2,4,4.3,5.8,6.3c42.8-10.9,84-25.6,123-43.3c-34.8,21.4-71.7,40.5-110.5,56.7c10.2,11.1,18.7,21.6,32.4,39.8
					c10.2,14.1,55,22.3,100.7,19.5c45.8-1.9,92.6-14.8,108.7-24.1c1-0.2,22.4-55.7-4.7-108.2c-22.1-43.3-57.8-88.6-102.4-108
					c-5.9-2.5-11.9-4.7-17.8-7.1C810.2,566,797.5,584,784.5,601.9z"/>
			</g>
			<g>
				<path fill="#5B895C" d="M881.7,714.2c-27.4-18-52.5-38.1-75.2-59.8c-45.7,19.5-94.3,34.6-144.9,44.3c8.4,3.2,17.2,7.8,25.8,17.2
					c2,2.2,4,4.3,5.8,6.3c42.8-10.9,84-25.6,123-43.3c-34.8,21.4-71.7,40.5-110.5,56.7c10.2,11.1,18.7,21.6,32.4,39.8
					c1.1,1.4,2.5,2.8,4.2,4.1C791.5,762,838.2,739.9,881.7,714.2z"/>
			</g>
			<path fill="#4F7950" d="M612.4,628.7c11.2,10.2,13.6,19.9,14.3,29.1c34.6-25.8,67.7-53.3,99.1-82.2
				c-21.3-11.6-41.7-24.7-61.2-39.1c-22.3-9.6-44.2-20.9-65.4-33.9c-34.9,28.3-70.7,55.5-107.5,81.4c5.2,4.7,11.1,9.1,18,13
				c29.1,16.6,60.6,13.9,83.5,21.2c28.7-18.8,56.4-38.7,83.2-59.7c-21,23.7-42.5,47-64.4,69.9C612.2,628.5,612.3,628.6,612.4,628.7z
				"/>
			<g>
				<path fill="#759964" d="M599.3,502.5c14.6-28,29.9-55.5,45.9-82.5c-3.2-1.5-6.5-2.9-9.9-4.1c-15.7,25.6-30.7,51.8-45.2,78.4
					C593.1,497.1,596.2,499.8,599.3,502.5z"/>
				<path fill="#4F7950" d="M653.6,424.5c-14.4,26.5-28.1,53.6-41,81.1c17.8,13.7,36.4,26.2,55.6,37.4c10.2-29,21.3-57.5,33.2-85.6
					C684.2,447.4,670,434.1,653.6,424.5z"/>
				<g>
					<path fill="#5B895C" d="M544,465.3c4.2,2.8,8.4,5.6,12.6,8.2c13.6-21.8,27.6-43.3,41.9-64.4c-6.6-0.8-12.9-1.6-19.1-2.7
						C567.1,425.7,555.4,445.4,544,465.3z"/>
				</g>
			</g>
			<path fill="#44753F" d="M483.4,435.6c-0.6-29,0.5-57.8,3.1-86.1c-10.9-8.6-21.4-17.4-31.9-29.6c-3.6-4.2-7.7-8-12.3-11.4
				c-0.7,32.4,0.6,64.9,4,97.4c-14.1-8.2-28-17.2-41.7-26.9c-22.8,7.6-45.8,14.7-68.9,21.2c5.1,13.4,11.9,26.7,20.3,38.4
				c7.8,10.7,15.8,20.4,23.7,29.1C420.2,457.8,483.5,435.9,483.4,435.6z"/>
			<path fill="#ABC169" d="M319.6,317.5c-0.4-1.9,59.9,53.6,138.4,103.1c78.8,52.9,175.7,99.9,256,159.2
				c60.3,46.1,124,118.8,195.6,176.9c69.1,59.2,146.2,103.7,175.4,119.4c7.3,4.1,19.9,2.8,28.9-3c0,0,0,0,0,0
				c10.1-6.5,11.6-15.6,3.7-20c-142.9-80.9-232.1-155-295.6-206.1c-61.9-51.5-98.1-80.2-99.2-79.9
				c-91.7-61.3-188.3-109.7-266.6-158.6C378.6,362.1,319.2,315.4,319.6,317.5z"/>
		</g>
		<g>
			<path fill="#7EA46B" d="M462.3,980l-1.2-1.7l2.5,1.7H594l-68.4-50.7l75.4,41.3c2-3.6,3.9-7.3,5.7-11L533.1,921l76.6,32.7
				c2.5-5,5.1-10,8.1-14.7c21.3-33.5,52.8-55.6,57.2-97.9c2.1-20.6,1.2-37.8,2.7-55c-21.3-12.5-47.7-27.9-47.7-27.9l48.8,18.8
				c1.6-10.5,4.6-21.3,10.1-33c16.2-34.4,18.5-59.5,31-89.3c6.4-15.2,6.1-35.9,1.1-56.3l-58.9,16.2l55.6-27.4
				c-10.8-32.3-32.9-61.2-58.5-63c0,0-47.6,17.5-69.9,55.6c-12.6,21.4-22.1,42.2-29.3,59.1l55.2,85.1l-63.7-64.9
				c-1.8,4.3-3.4,8.1-4.9,11.1c-7.7,16.3-35.3,23.2-50.6,55.7c-11.7,24.9-8.8,54.1-16.1,73.9l48.9,89.6l-59.1-74.6
				c-0.1,0.1-0.2,0.2-0.3,0.3c-21.1,16.6-38.5-2.7-52.7,3.9c-14.2,6.6-12.8,27.1-36.8,35.7c-2.4,0.9-4.7,1.7-6.8,2.5l4.7,116.3
				l-19.4-111.3c-12.2,3.8-23.6,6.2-43.4,8.4c-22.9,2.6-54.2,65.6-68.5,109.4H462.3z"/>
			<path fill="#5B895C" d="M393.7,980l10.5-3.5l-4-137.3c-4.2,6-9.8,11.9-20,15.5c-2.4,0.9-4.7,1.7-6.8,2.5l4.7,116.3l-19.4-111.3
				c-12.2,3.8-23.6,6.2-43.4,8.4c-1.5,0.2-3.1,0.6-4.7,1.3l7.1,108.1H393.7z"/>
			<path fill="#759964" d="M469.6,815.1c-10.1,7.9-19.3,7.7-27.8,5.9l61.4,111.5l48.6-50.9l35.7-61.5l-81.9-109.7
				c-3.4,4.4-6.6,9.5-9.4,15.4c-11.7,24.9-8.8,54.1-16.1,73.9l48.9,89.6l-59.1-74.6C469.8,814.9,469.7,815,469.6,815.1z"/>
			<g>
				<path fill="#759964" d="M587.5,820.2l80,48.7c1.6-3.5,2.9-7.1,4.1-10.8L595,811.4L587.5,820.2z"/>
				<path fill="#759964" d="M662.8,878.1l-78.1-44.7l-39.6,50.7l79.9,44.4C637.8,911,652.5,896,662.8,878.1z"/>
				<path fill="#5B895C" d="M617.9,765.2l-6,12.8l64.6,40.4c0.2-7,0.3-13.8,0.6-20.4L617.9,765.2z"/>
			</g>
			<path fill="#759964" d="M632.7,702.9l74.4-9.6c3.7-12.8,7.3-25.3,12.9-38.7c1.9-4.6,3.2-9.7,4-15.1l-76.8,23.2l6.7-45l-44.5-62.4
				c-7.4,6.9-14.5,15-19.9,24.4c-5,8.6-9.6,17.1-13.7,25.3C597.8,642.4,632.7,702.9,632.7,702.9z"/>
			<path fill="#CFCF86" d="M434,980c52.4-24.8,78.1-48.1,78.1-48.1c166-146.8,147.3-407.8,147.3-407.8s-3.6,273.4-157.5,396.2
				c-34.5,27.6-80.6,46.6-129.8,59.7H434z"/>
		</g>
		<g>
			<path fill="#7EA46B" d="M1400,445.5c-1.4-1-2.9-2-4.3-3l-45.6,47.4l27.1-63.4c-15.4-18.4-20-45-38.5-60.4
				c-3.8-3.2-8-5.7-12.4-7.7l-36.8,77.7l25.8-82c-3.9-1.3-7.9-2.4-11.9-3.5l-23.6,79.7L1297,349c-5.4-1.5-10.8-3.1-16-5.1
				c-37.1-14.3-64.8-41-107.2-37c-20.6,1.9-37.3,6.2-54.5,8c-8.1,23.4-18.1,52.2-18.1,52.2l8.9-51.5c-10.6,0.5-21.8-0.3-34.4-3.5
				c-36.9-9.2-62-6.6-93.6-13c-16.2-3.3-36.4,1-55.4,9.9l27.4,54.6l-37.7-49.2c-29.6,16.9-53.7,44.2-50.4,69.7
				c0,0,26.5,43.2,68.2,57.7c23.4,8.2,45.7,13.4,63.7,17.2l72.7-70.8l-51.2,75.1c4.6,0.9,8.6,1.8,11.8,2.6
				c17.5,4.4,29.6,30.1,64.5,38.8c26.7,6.7,54.7-2,75.6,1.4l78.4-65.5l-61.6,72.5c0.1,0.1,0.2,0.2,0.3,0.2
				c20.4,17.4,4.9,38.3,14.1,50.9c9.2,12.6,29.1,7.3,42.2,29.1c1.3,2.2,2.6,4.3,3.7,6.2l113.1-27.3l-105.4,40.8
				c6.1,11.2,10.7,21.9,16.7,40.9c7.3,23,81.5,42.1,127.1,46.6V445.5z"/>
			<path fill="#5B895C" d="M1400,617.4l-40.5-71.2l-133.9,30.7c6.7,2.9,13.6,7.3,19.2,16.6c1.3,2.2,2.6,4.3,3.7,6.2l113.1-27.3
				l-105.4,40.8c6.1,11.2,10.7,21.9,16.7,40.9c0.5,1.5,1.2,2.9,2.2,4.4l124.8-33.5V617.4z"/>
			<path fill="#759964" d="M1188.4,513.4c9.8,8.4,11.3,17.5,11.2,26.1l97.4-81.9l-59.4-37.8l-67.2-23l-91.6,101.7
				c5,2.5,10.6,4.6,16.9,6.2c26.7,6.7,54.7-2,75.6,1.4l78.4-65.5l-61.6,72.5C1188.2,513.3,1188.4,513.4,1188.4,513.4z"/>
			<g>
				<path fill="#759964" d="M1170.5,396.9l32.2-87.9c-3.7-0.9-7.5-1.5-11.4-1.9l-30.8,84.2L1170.5,396.9z"/>
				<path fill="#759964" d="M1212.6,311.7l-28.6,85.4l57.4,28.9l28-87.1C1249.7,329.8,1232.2,318.3,1212.6,311.7z"/>
				<path fill="#5B895C" d="M1110.6,377.8l13.7,3.4l27-71.2c-6.9,1.2-13.6,2.4-20.1,3.4L1110.6,377.8z"/>
			</g>
			<path fill="#759964" d="M1046.5,375.4l-23.9-71.1c-13.3-1.1-26.2-2.2-40.5-5.1c-4.9-1-10.1-1.3-15.6-1l37.8,70.8l-45.4,2.2
				L906.4,427c8.2,6,17.5,11.3,27.8,14.8c9.4,3.3,18.6,6.1,27.4,8.5C994.1,421.4,1046.5,375.4,1046.5,375.4z"/>
			<path fill="#CFCF86" d="M1400,584.2c-50.8-94.8-105.3-135.2-105.3-135.2C1118.3,314.8,866,384.1,866,384.1s268.8-49.8,419.3,77.3
				c51.3,43.3,88.5,116.5,114.6,189.2V584.2z"/>
		</g>
		<g>
			<g>
				<path fill="#4F7950" d="M887.3,897.1c-6.8,16.1-36.8,30.6-70.4,34.6c-33.4,4.8-70.4-0.8-85-8.4c0,0-1.3-2.3-3.3-6.5
					c23-31,54.8-80.9,91.4-135.9c36.9-54.2,78.6-113.5,128-144.9c140.2-93.9,265.9-31.8,386.7,63.1c-0.2-0.6-47.8,4.2-95.4-1.4
					c-27.1-4-50.8-6.4-69.5-7.7c-18-28.9-36-57.6-53.9-86.1c10.6,28.4,21.3,56.8,31.9,85.1c-4.6-0.1-8.7,0-12,0.2
					c-17.6,1-34.6,25.6-67.7,33.4c-25.3,6.1-48.5-3.5-67.3,0.7c-19.1-24.5-38.2-48.9-57.2-73.2c13.8,27.2,27.6,54.5,41.4,81.7
					c-0.1,0.1-0.2,0.2-0.3,0.3c-20.7,20.9-10.6,44.6-20.7,59.6c-10.1,15.1-26.4,9.8-41.4,35.6c-1.5,2.6-2.9,5-4.3,7.3
					c-31.3-9.3-62.9-19.3-95.1-31.1c29.1,16.6,57.7,32,86.1,46.8C901.9,863.5,896,875.8,887.3,897.1z"/>
			</g>
			<path fill="#CFCF86" d="M706.3,980c15.7-20.6,33.5-46.2,52.1-77c45.1-70.1,93.9-168.5,150.8-227.3c74.4-80.7,172-98.1,260.8-69.3
				c87.2,24.6,165.6,95.5,164.6,92.7c0.5,1.2-70-66.1-157.2-99c-43.6-16.5-91.3-24.2-137.9-14.7c-46.8,9.1-92.6,35.3-136.4,76.3
				c-0.5-1.3-36.8,37.1-86.4,108c-43.3,58.9-96.4,141.7-157.9,210.2H706.3z"/>
			<path fill="#7EA46B" d="M1334.6,699.2c-0.3-0.7-40.6-3.1-71.2-17c-31.7-17-105.4-59.4-125.5-50.3c-15,5.4-29.9,18.7-48,32.8
				c-15.7-20.1-31.2-40-46.8-59.8c9.9,24,19.9,48.1,29.8,72.1c-1.8,1.2-3.6,2.4-5.4,3.5c-29.2,18.6-59.5,24.6-70.4,29.2
				c-6.9,2.8-28.9,26.7-45.6,45.1c-17.6-22.6-35.2-45.1-52.8-67.7c12.5,28.1,25,56.1,37.5,84.2c-2.3,2.3-4,3.8-4.8,4.2
				c-6,3.2-55.9,24.6-71.8,64.1c-5.5,14-10.2,28.1-17.5,41.2c-18.8-3-37.8-6.8-57.3-11.6c15.6,9.6,30.9,18.8,46.2,27.5
				c-14.8,16.5-37.9,30.8-83.6,29.5c-0.4-1,27.8-75.3,98.2-181.8c35.9-51.3,89.3-113.6,166.3-142.4
				C1089.5,574.6,1190.7,580.8,1334.6,699.2z"/>
			<g>
				<path fill="#759964" d="M1100.2,656.5c-2.5,1.9-5,3.9-7.5,5.9c-12.5-23.9-25-47.7-37.5-71.6c3.1-0.5,6.2-0.9,9.3-1.2
					C1076.5,611.9,1088.4,634.2,1100.2,656.5z"/>
				<path fill="#759964" d="M1189.7,609.3c10.2,4,20.6,8.7,31.4,14.1c6.1,15.3,12.2,30.6,18.4,45.9c-10.7-5.8-22.6-12.3-34.4-18.1
					C1199.9,637.2,1194.8,623.3,1189.7,609.3z"/>
				<path fill="#759964" d="M1008.5,603.4c7.5,14.3,32.7,62.1,44.7,85.4c-12.4,6.3-24.3,10.6-34.3,13.9
					c-12.2-29.1-24.3-58.3-36.5-87.4C990.8,610.8,999.5,606.8,1008.5,603.4z"/>
				<path fill="#759964" d="M1129.1,635.9c-3.5,1.9-6.9,4.1-10.5,6.6c-8.8-18.1-17.6-36.1-26.3-54.1c3.8,0.1,7.7,0.2,11.7,0.5
					C1112.3,604.6,1120.7,620.2,1129.1,635.9z"/>
				<path fill="#759964" d="M970.9,621.6c12,28.3,24,56.5,36,84.8c-4,1.2-7.3,2.3-9.7,3.3c-4.4,1.9-15,12.1-26.3,24.2
					c-16.4-25.5-32.8-51-49.2-76.5C936.6,644.4,953,632.1,970.9,621.6z"/>
				<path fill="#759964" d="M1155.9,632.2c-7.6-1.6-13.8-1.9-17.9-0.4c-0.8,0.3-1.6,0.6-2.5,1c-6.8-14.3-13.6-28.6-20.5-42.9
					c8.1,0.9,16.4,2.3,25,4.1C1145.3,606.8,1150.6,619.5,1155.9,632.2z"/>
			</g>
		</g>
		<g>
			<g>
				<path fill="#4F7950" d="M387.7,0c3.4,9.8,7.6,19.7,12.7,29c15.7,30,39.8,53,57.2,53.7c23,0.7,36.6,1.8,51.3,4
					c3.4-28.4,7.3-57.2,11.8-86.6H387.7z"/>
				<path fill="#4F7950" d="M723.4,47.3C695.8,26.6,660.1,11.8,622.4,0h-99.8c0.6,30.6,2.2,60.3,4.3,89.5c2.7,0.5,5.4,0.9,8.4,1.4
					c29.4,5,30.2,22.1,47.9,26.2c17.6,4.1,36.3-13.6,63.1-1.7c0.1,0.1,0.2,0.1,0.4,0.2c20.6-22.5,41.3-45.1,61.9-67.6
					c-16,26.4-32.1,52.9-48.3,79.4c10.6,16.2,9.8,41.2,24.4,62.7c19,28.2,48,35.4,55.2,51.6c1.3,3,2.8,6.8,4.4,11.1
					c22.8-20,45.6-40,68.4-59.9c-20.4,26.8-40.9,53.7-61.6,80.8c5.4,18,11.5,40.9,17.4,67.7c11.5,46.6,32.8,89.4,32.3,89.8
					C846.9,284.8,860.7,145.3,723.4,47.3z"/>
			</g>
			<path fill="#CFCF86" d="M803,115.1c-25-40.6-65.7-74.2-119.5-100.7c0.5-0.5-12.1-6.1-36-14.4h-53.3c28.2,6.8,55,14.9,78.4,25
				c101.7,41.1,152.5,126.3,156.8,219.6c7.8,90.3-30.9,188.7-28.7,186.7c-1,0.9,37.1-88.8,37.2-182C838,202.7,828.3,155.4,803,115.1
				z"/>
			<path fill="#7EA46B" d="M400.1,0c11.8,16.3,25.2,24.8,38.2,29.9c1.6-9.9,3.3-19.8,5.1-29.9H400.1z"/>
			<path fill="#7EA46B" d="M621.6,0H450.9c1.8,11.8,3.9,23.3,6.2,34.6c14.8,2.2,29.6,1.6,44.7,1.8c42.6,1,80.2,40,85.3,44.6
				c0.7,0.6,2.7,1.7,5.6,3c21.8-21.6,43.7-43.2,65.5-64.8c-14.9,24.5-29.8,48.9-44.7,73.3c23.1,9.1,53.2,21.3,58.3,26.7
				c8.2,8.6,24.4,34.9,52.1,55.6c1.7,1.3,3.5,2.6,5.2,3.8c19-17.8,38-35.6,57-53.3c-13,21.5-26.1,43.1-39.4,64.8
				c19.5,12,37.2,21.2,47.6,33.4c15.6,15.6,2,99.5-2.8,135.2c-2.3,33.5,9.7,72.1,9.2,72.6c60-176.4,30.1-273.3-22.9-336.2
				C733.9,44.9,674.8,17,621.6,0z"/>
			<g>
				<path fill="#759964" d="M758,197c-2.7-1.6-5.4-3.3-8.2-5c17.9-20.1,35.9-40.2,53.7-60.3c1.5,2.7,3,5.5,4.4,8.3
					C791.3,159,774.7,178,758,197z"/>
				<path fill="#759964" d="M833.7,264c-0.2,10.9-0.9,22.4-2.2,34.3c-12.2,11.1-24.3,22.3-36.5,33.4c1.7-12,3.5-25.5,4.8-38.6
					C811.2,283.4,822.5,273.7,833.7,264z"/>
				<path fill="#759964" d="M775.3,92.4c-10.7,12.1-46.6,52.5-64.1,71.9c-10.2-9.3-18.5-19-25.1-27.2c23-21.7,45.9-43.3,68.9-65
					C762.1,78.5,768.9,85.2,775.3,92.4z"/>
				<path fill="#759964" d="M787.4,216.7c-3-2.6-6.3-5-9.9-7.5c13.8-14.6,27.6-29.2,41.3-43.7c1.3,3.6,2.5,7.3,3.7,11.1
					C810.9,190,799.2,203.4,787.4,216.7z"/>
				<path fill="#759964" d="M745,63.7c-22.2,21.2-44.4,42.4-66.6,63.6c-2.6-3.3-4.7-6-6.5-7.9c-3.3-3.5-16.6-9.7-32-16.1
					c18.1-24.4,36.1-48.7,54.2-73C711.6,39.6,728.8,50.6,745,63.7z"/>
				<path fill="#759964" d="M800.3,240.5c-1.1-7.7-3.1-13.6-6-16.9c-0.6-0.7-1.2-1.3-1.8-2c11-11.4,22-22.9,32.9-34.3
					c2,7.9,3.7,16.2,5,24.8C820.4,221.6,810.4,231.1,800.3,240.5z"/>
			</g>
		</g>
		<g>
			<g>
				<path fill="#4F7950" d="M486.3,47.1c0,0-1.7-1.4-4.8-3.5c-31.6,24.8-83,54.5-140.8,75.9c-57.5,22.5-119.3,35.3-165.1,56.7
					c-66.9,28.9-109.3,62.5-147.7,107.6C18.4,294.9,9.2,306.8,0,319.2v83.9c3.2-2.1,6.3-4.2,9.4-6.4c22.8-17,41.6-32.1,56.3-44.1
					c-2.7-28-6.1-55.7-10.3-83c9.2,23,18.3,46,27.5,69c3.6-2.9,6.8-5.4,9.5-7.4c14.1-10.5,43.2-8.1,72.2-28.2
					c22-15.4,30.1-37.3,44.4-49.8c-6.2-25.2-13.2-49.9-21.2-74c12.6,21.6,24.9,43.3,36.9,65.3c0.1,0,0.3-0.1,0.4-0.1
					c27.4-8,39.6,8.7,57.1,5.6c17.6-3.6,22.5-19.2,51-25.5c2.9-0.7,5.6-1.3,8.2-1.9c8.8-31.5,14.6-63.3,16.7-95.4
					c3,30.1,3.1,60.5,0.7,91.1c14.4-3.7,27.5-6.3,49.7-10.9c16.8-3.5,43.8-32.4,59.7-68.3C485,103.4,489.7,62.7,486.3,47.1z"/>
			</g>
			<path fill="#E4D56F" d="M512.4,0c-17.6,17.3-36.1,32.7-54.7,46.2c-43.9,32-88.4,52.9-124.9,68.1
				c-74.8,28.5-118.6,37.6-117.9,39.3C165.6,171.3,125.9,188.6,93,213c-33,23.9-60,55-85,88.5c-2.7,3.7-5.4,7.4-8,11.1v10.2
				c5.6-7.2,11.4-14.4,17.1-21.3C70.6,235,129.9,189.8,222.4,163.4c68.4-20.4,167.1-42.6,239.9-88.5c40.5-23.4,71.8-51,94.3-74.9
				H512.4z"/>
			<path fill="#7EA46B" d="M301.7,133.6c-55.2,18.1-122,35.4-182.6,70.4c-30.6,18.5-60.2,42-91.6,79.2c-9,10.4-18.1,22-27.5,34.7
				v50.8c20-29.5,42.4-65,55.8-69.7c14.3-5.5,33.1-6.9,54.8-11.1c-1.9-21.1-4.5-41.9-7.6-62.3c9.2,19.1,18.3,38.3,27.4,57.6
				c2-0.6,4-1.2,6-1.8c32.3-10.4,55.3-30.7,64.9-37c6.1-3.8,36.2-10.8,59.4-18.2c-7.6-22.7-15.9-45-25-66.8
				c15.5,19.7,30.8,39.6,45.9,59.7c3-1.2,5-2.1,5.8-2.7c6.2-3.9,46.9-40.3,85.8-47.9c13.9-2.4,27.7-4.4,41.7-9.7
				c5.1-19.3,8.8-39,10.8-59.1c3.3,16.6,5.6,33.3,7.1,50.1c19.6-13,41.6-36.5,52.3-85.9C484.3,61.8,413.4,99.9,301.7,133.6z"/>
			<g>
				<path fill="#759964" d="M98.1,290.2c3-0.5,6-1,9.1-1.6c-6.5-21.1-13.2-42.1-20.3-62.9c-2.2,1.6-4.3,3.3-6.5,5.1
					C86.6,250.4,92.5,270.2,98.1,290.2z"/>
				<path fill="#759964" d="M0,368.7c4.5-6.6,9.1-13.4,13.6-20.1c-3.4-11.6-6.9-23.3-10.3-34.9c-1.1,1.4-2.2,2.9-3.3,4.4V368.7z"/>
				<path fill="#759964" d="M122,202.4c5.3,12.1,21.8,53.1,29.5,73.1c12.4-5.5,23.1-12.2,31.5-18c-12.9-22.3-26-44.5-39.2-66.7
					C136.5,194.4,129.2,198.3,122,202.4z"/>
				<path fill="#759964" d="M64.7,296.2c3.7-1,7.6-1.8,11.6-2.5c-4.6-15.8-9.4-31.4-14.2-47.1c-2.5,2.3-5,4.7-7.4,7.1
					C58.2,267.9,61.5,282,64.7,296.2z"/>
				<path fill="#759964" d="M154.1,185.9c13.1,21.4,26.1,42.8,38.9,64.4c3.3-2.5,6.1-4.5,8.2-5.9c3.9-2.5,17.5-6.1,33-10.4
					c-9.7-23.1-20-45.8-30.8-68.2C187,171.8,170.5,178.3,154.1,185.9z"/>
				<path fill="#759964" d="M42.4,309.7c4.9-5.3,9.4-9.1,13.3-10.6c0.8-0.3,1.6-0.6,2.4-0.9c-3.4-12.5-6.9-25-10.4-37.4
					c-5,5.2-10.1,10.7-15.2,16.6C35.8,288.1,39.2,298.9,42.4,309.7z"/>
			</g>
		</g>
		<g>
			<g>
				<path fill="#4F7950" d="M1168.3,485.6c16.8-3.5,43.8-32.4,59.7-68.3c16.8-35.4,21.5-76.1,18.1-91.6c0,0-1.7-1.4-4.8-3.5
					c-31.6,24.8-83,54.5-140.8,75.9c-57.5,22.5-119.3,35.3-165.1,56.7c-66.9,28.9-109.3,62.5-147.7,107.6
					c-38,44.5-72,100.5-112.2,158.5c-0.1-0.3,52.9-16.3,93.7-45.7c22.8-17,41.6-32.1,56.3-44.1c-2.7-28-6.1-55.7-10.3-83
					c9.2,23,18.3,46,27.5,69c3.6-2.9,6.8-5.4,9.5-7.4c14.1-10.5,43.2-8.1,72.2-28.2c22-15.4,30.1-37.3,44.4-49.8
					c-6.2-25.2-13.2-49.9-21.2-74c12.6,21.6,24.9,43.3,36.9,65.3c0.1,0,0.3-0.1,0.4-0.1c27.4-8,39.6,8.7,57.1,5.6
					c17.6-3.6,22.5-19.2,51-25.5c2.9-0.7,5.6-1.3,8.2-1.9c8.8-31.5,14.6-63.3,16.7-95.4c3,30.1,3.1,60.5,0.7,91.1
					C1133,492.8,1146.2,490.2,1168.3,485.6z"/>
			</g>
			<path fill="#E4D56F" d="M675.6,720.9c0.5,2.2,49.5-78.7,101.4-140.9c53.5-66.5,112.8-111.7,205.3-138.1
				c68.4-20.4,167.1-42.6,239.9-88.5c74.9-43.2,118.3-101.1,132.5-122.6c3.7-5.3,3.1-16.3-1.6-25.2c0,0,0,0,0,0
				c-5.3-9.9-12.9-13.1-16.5-7.4c-32,52.1-75.3,94.8-119.1,126.5c-43.9,32-88.4,52.9-124.9,68.1c-74.8,28.5-118.6,37.6-117.9,39.3
				c-49.3,17.7-88.9,35.1-121.8,59.4c-33,23.9-60,55-85,88.5C719.1,646.6,675.5,721.7,675.6,720.9z"/>
			<path fill="#7EA46B" d="M675.6,720.9c0-0.4,41.3-19,62.4-43.6c22.7-26.6,59-93.2,77.7-99.7c14.3-5.5,33.1-6.9,54.8-11.1
				c-1.9-21.1-4.5-41.9-7.6-62.3c9.2,19.1,18.3,38.3,27.4,57.6c2-0.6,4-1.2,6-1.8c32.3-10.4,55.3-30.7,64.9-37
				c6.1-3.8,36.2-10.8,59.4-18.2c-7.6-22.7-15.9-45-25-66.8c15.5,19.7,30.8,39.6,45.9,59.7c3-1.2,5-2.1,5.8-2.7
				c6.2-3.9,46.9-40.3,85.8-47.9c13.9-2.4,27.7-4.4,41.7-9.7c5.1-19.3,8.8-39,10.8-59.1c3.3,16.6,5.6,33.3,7.1,50.1
				c19.6-13,41.6-36.5,52.3-85.9c-0.7-2.1-71.6,36-183.3,69.6c-55.2,18.1-122,35.4-182.6,70.4c-30.6,18.5-60.2,42-91.6,79.2
				C755.6,598.8,722,649.5,675.6,720.9z"/>
			<g>
				<path fill="#759964" d="M858,568.7c3-0.5,6-1,9.1-1.6c-6.5-21.1-13.2-42.1-20.3-62.9c-2.2,1.6-4.3,3.3-6.5,5.1
					C846.5,528.9,852.4,548.7,858,568.7z"/>
				<path fill="#759964" d="M763.1,592.2c-5.9,7.9-12,16.3-18.3,25.1c2.8,13.1,5.6,26.3,8.4,39.5c6.5-9.3,13.4-19.6,20.2-29.7
					C770,615.5,766.6,603.8,763.1,592.2z"/>
				<path fill="#759964" d="M881.8,481c5.3,12.1,21.8,53.1,29.5,73.1c12.4-5.5,23.1-12.2,31.5-18c-12.9-22.3-26-44.5-39.2-66.7
					C896.3,472.9,889.1,476.8,881.8,481z"/>
				<path fill="#759964" d="M824.6,574.7c3.7-1,7.6-1.8,11.6-2.5c-4.6-15.8-9.4-31.4-14.2-47.1c-2.5,2.3-5,4.7-7.4,7.1
					C818,546.4,821.4,560.5,824.6,574.7z"/>
				<path fill="#759964" d="M914,464.4c13.1,21.4,26.1,42.8,38.9,64.4c3.3-2.5,6.1-4.5,8.2-5.9c3.9-2.5,17.5-6.1,33-10.4
					c-9.7-23.1-20-45.8-30.8-68.2C946.8,450.3,930.3,456.8,914,464.4z"/>
				<path fill="#759964" d="M802.3,588.2c4.9-5.3,9.4-9.1,13.3-10.6c0.8-0.3,1.6-0.6,2.4-0.9c-3.4-12.5-6.9-25-10.4-37.4
					c-5,5.2-10.1,10.7-15.2,16.6C795.7,566.6,799,577.4,802.3,588.2z"/>
			</g>
		</g>
		<g>
			<g>
				<path fill="#63915F" d="M470.3,980c-25.8-24.7-56.7-45.3-89.5-52.8c-6.2-1.4-12.6-2.4-18.8-3.7c-8.2,19-16.8,37.8-25.6,56.5
					H470.3z"/>
				<path fill="#63915F" d="M0,980h203.4c5.8-6.3,11.5-12.7,17.1-19.1c-3.8,6.4-7.7,12.7-11.6,19.1h126c1.5-21.5,3.4-42.9,5.5-64.3
					c-19.3-11.7-29.2-35.4-48.1-45.2c-3.9-2.1-8.1-3.4-12.3-4.4c-7.2,27.7-14.1,55.5-20.5,83.5c2.5-28.5,5.9-57,10.1-85.2
					c-3.7-0.4-7.4-0.7-11.1-1c-4.1,27.3-7.3,54.8-9.6,82.5c0.1-27.8,1.4-55.5,3.6-83c-5.1-0.5-10.2-1.2-15.1-2.4
					c-35.6-9-60.5-34.3-99.7-32.9c-19.3,0.5-35.4,2.8-52,1.6c-10,22.9-21.6,51.7-21.5,51.7c3.8-17.8,8-35.3,12.7-52.7
					c-10.2-1.6-20.8-4.9-32.4-11.6C27.7,806.7,13.5,800,0,793.1v126.5c10.7-7.5,21.2-15.1,31.7-22.9C21.2,909.4,10.6,922.2,0,934.9
					V980z"/>
			</g>
			<path fill="#759964" d="M203.4,980c5.8-6.3,11.5-12.7,17.1-19.1c-3.8,6.4-7.7,12.7-11.6,19.1h54.7c2.9-3.8,5.7-7.5,8.6-11.3
				c-23-7.5-45.5-16.6-67.4-27.2c-23.7-5.4-47.3-12.5-70.5-21.3C117,940.5,99.4,960.4,81.4,980H203.4z"/>
			<g>
				<path fill="#759964" d="M134.2,920.2c9.2-30.2,19.2-60.1,30-89.6c-3.4-0.9-6.9-1.6-10.5-2.2C143,856.5,133,885,123.7,913.8
					C127.2,916,130.7,918.1,134.2,920.2z"/>
				<path fill="#759964" d="M173.3,833.5c-9.3,28.7-17.7,57.8-25.3,87.3c20.1,10.2,40.6,19,61.5,26.5c4.7-30.4,10.3-60.5,16.8-90.3
					C207.5,850.3,191.2,839.9,173.3,833.5z"/>
				<g>
					<path fill="#5B895C" d="M73,893.8c4.6,2,9.3,3.9,13.9,5.8c9.3-24,19.1-47.6,29.3-71c-6.6,0.4-13,0.8-19.3,0.9
						C88.5,850.6,80.5,872.1,73,893.8z"/>
				</g>
			</g>
			<path fill="#759964" d="M0,830.9v49.5c5-2.9,8-4.6,8-4.7C4.8,860.8,2.2,845.8,0,830.9z"/>
			<path fill="#A8C288" d="M270.8,980h34.2c-23.8-12.8-36.9-19.4-37.5-19.2C175.3,921.4,81,893.2,0,863.1v10.9
				c82.8,33.6,178,60.8,261.2,101C264.4,976.6,267.6,978.3,270.8,980z"/>
		</g>
		<g>
			<g>
				<path fill="#63915F" d="M0,0v184.1c1-0.3,2-0.6,3-0.9c20.8-6.2,54.5,7,94.5-11.3c30.3-14.2,46.3-41.4,65.5-56
					c1.2-34.2,1-68.4-0.7-102.4c7.2,30.8,13.8,61.8,19.9,93c0.1,0,0.3-0.1,0.4-0.1c30.8-7.1,38.5,17.3,57.2,15.6
					c18.8-2.1,27.7-22.9,57.3-26.4c3-0.4,5.8-0.7,8.5-1.1c11.9-31.2,21.6-62.8,29-94.5H0z"/>
				<path fill="#63915F" d="M338.7,0c-3.1,30.6-8.1,61.4-14.9,92.1c14.9-2,28.4-2.8,51.2-3.4c17.4-0.2,49.9-32,74.1-71
					c3.7-5.8,7.2-11.7,10.6-17.7H338.7z"/>
			</g>
			<g>
				<path fill="#5B895C" d="M306.6,0c-9.8,36-22.6,71.8-38.4,106.7c7.5-5,16.2-9.5,29-11.1c3-0.4,5.8-0.7,8.5-1.1
					c11.9-31.2,21.6-62.8,29-94.5H306.6z"/>
				<path fill="#5B895C" d="M338.7,0c-3.1,30.6-8.1,61.4-14.9,92.1c14.9-2,28.4-2.8,51.2-3.4c1.8-0.1,3.7-0.4,5.8-1.1
					c8.1-29.1,14.5-58.3,19.2-87.5H338.7z"/>
			</g>
			<path fill="#759964" d="M166.5,0c-9.6,3.8-19.2,7.3-29,10.5c-20.8,12.7-42.6,24-65.4,33.8c3,44.9,4.5,89.8,4.4,134.7
				c6.8-1.6,13.9-3.8,21-7.2c30.3-14.2,46.3-41.4,65.5-56c1.2-34.2,1-68.4-0.7-102.4c7.2,30.8,13.8,61.8,19.9,93
				c0.1,0,0.3-0.1,0.4-0.1c14.8-3.3,24.1,0.4,32.1,5.1c-0.9-37.4-3.6-74.6-7.8-111.5H166.5z"/>
			<g>
				<path fill="#759964" d="M37.7,0C44.9,15.8,52.3,31.4,60,47c4-0.9,8-1.8,12-2.7C64.5,29.6,57.1,14.8,50,0H37.7z"/>
				<path fill="#759964" d="M62.9,0c6.3,11.8,12.7,23.5,19.4,35.2c21.5-6.6,42.4-14.6,62.6-23.8c-2.7-3.8-5.3-7.6-8-11.4H62.9z"/>
				<g>
					<path fill="#5B895C" d="M0,3.4v43.4C3.2,53.9,6.4,60.9,9.7,68c4.7-1.8,9.4-3.6,14-5.5C15.4,42.9,7.5,23.2,0,3.4z"/>
				</g>
			</g>
			<path fill="#A8C288" d="M0,80.3C61.1,52.9,124.1,22.3,187.4,0H148C96.5,21.8,47,45.4,0,67.4V80.3z"/>
		</g>
		<g>
			<g>
				<path fill="#63915F" d="M886.7,937c30.4,12.9,58.6,19.6,81.1,23.5c19.7-26,38.5-52.8,56.2-80.2c-9.7,28-19.6,56-29.6,84
					c5.7,0.7,10.6,1.2,14.7,1.8c10.2,1.3,21.2,7.6,34.7,14H1153c10.5-4.4,20.4-8.8,29.8-11.1c14.9-30.8,28.5-62.2,40.6-94
					c-5.8,31.1-12.3,62.2-19.3,93.1c0.1,0,0.3,0,0.4,0.1c11,2.1,17.7,6.6,22.6,11.9h120c19-21.2,36.6-43.4,52.7-66.2V787.7
					c-12.8-1.6-25.6-1.7-38-0.1c-6.3,0.9-12.6,2.2-18.9,3.1c-1.2,22-2.8,44-4.7,66c-6.4-21.8-12.5-43.8-18.2-65.8
					c-22.2-4.2-39.7-23-60.8-25.7c-4.4-0.6-8.8-0.4-13.1,0.1c2.9,28.5,6.1,57,9.8,85.4c-7.6-27.6-14.3-55.4-20.2-83.4
					c-3.6,0.9-7.2,1.9-10.8,2.9c5.7,27,12.2,53.9,19.6,80.7c-9.5-26.1-18-52.5-25.5-79.1c-4.9,1.3-9.9,2.4-15,3
					c-36.5,3.9-68.7-11.1-105,3.8c-17.9,7.2-32.3,14.9-48.2,19.6c-1.5,24.9-2.3,55.9-2.2,56c-2.6-18-4.7-35.9-6.4-53.8
					c-10.1,2-21.2,2.6-34.4,0.4c-38.5-7-63.8-5.4-97.7-16.3c-17.3-5.7-38-4.9-57.6,0.1c11.7,22.9,24.4,45.3,38.2,67.1
					c-17.3-20.4-33.6-41.7-48.8-63.9c-30.4,10.6-56,32.5-48.6,64.1C792.8,851.7,831.6,914.2,886.7,937z"/>
				<path fill="#63915F" d="M1400,980v-63.8c-11.6,21.7-24.4,43-38.2,63.8H1400z"/>
			</g>
			<g>
				<path fill="#5B895C" d="M1400,980v-63.8c-11.6,21.7-24.4,43-38.2,63.8H1400z"/>
				<path fill="#5B895C" d="M1347.3,980c19-21.2,36.6-43.4,52.7-66.2v-20.1c-5.3-1-10.6-2.1-15.8-3.3c-22.8,31.5-48.5,61.5-77,89.6
					H1347.3z"/>
			</g>
			<path fill="#759964" d="M1153,980c10.5-4.4,20.4-8.8,29.8-11.1c14.9-30.8,28.5-62.2,40.6-94c-5.8,31.1-12.3,62.2-19.3,93.1
				c0.1,0,0.3,0,0.4,0.1c11,2.2,17.7,6.7,22.6,11.9h6.9c15.4-38.1,28.9-76.7,40.4-115.7c-24.2,1-48.5,0.3-72.6-2.1
				c-24.1,3.2-48.7,4.8-73.5,4.5c-13.9,38.2-28.9,76-45.1,113.3H1153z"/>
			<g>
				<path fill="#759964" d="M1128.4,866.7c-1.9-31.5-2.9-63-3-94.4c-3.5,0.3-7,0.9-10.6,1.6c-0.2,30,0.3,60.2,1.6,90.4
					C1120.3,865.2,1124.4,866,1128.4,866.7z"/>
				<path fill="#759964" d="M1134.9,771.9c1.3,30.1,3.5,60.4,6.6,90.6c22.3,2.6,44.7,3.7,66.9,3.5c-6.2-30.1-11.4-60.3-15.6-90.5
					C1172.8,775.7,1153.9,771.7,1134.9,771.9z"/>
				<g>
					<path fill="#5B895C" d="M1061.8,863.3c5,0.3,10,0.5,15,0.6c0.4-25.7,1.4-51.3,2.8-76.8c-6.1,2.7-11.9,5.3-17.8,7.5
						C1061.3,817.4,1061.3,840.3,1061.8,863.3z"/>
				</g>
			</g>
			<path fill="#759964" d="M994.5,868.9c-15.4-24.6-29.3-49.8-41.7-75.4c-13.8-1.7-27.3-3.9-42.6-9c-5.2-1.7-10.7-2.8-16.4-3.4
				c16.1,28.1,33.9,55.4,53.5,81.5c-16.3,0.2-32.9-0.3-49.6-1.6c-15.6,18.3-31.7,36.1-48.2,53.6c11.3,8.9,23.9,16.8,37.2,22.4
				c12.2,5.2,24.1,9.4,35.3,12.8C951.8,920.4,994.9,869.2,994.5,868.9z"/>
			<path fill="#ABC169" d="M1400,876.8c-2.1-0.3-4.2-0.6-6.3-0.9c-79.6-12.4-125.3-18.3-126.2-17.5c-110.2-5.4-217.9,2.8-310.2,1.2
				c-90.4,0.2-165.3-9.3-163.9-7.7c-1.3-1.5,78.9,15.1,171.7,17.3c94.8,4.9,202-4.7,301.4,4.8c40.6,4.6,86,15.3,133.5,26.2V876.8z"
				/>
		</g>
		<g>
			<g>
				<path fill="#63915F" d="M1187.2,0c4.8,18.1,9.4,36.3,13.7,54.6c-12.5-18-24.7-36.2-36.6-54.6h-78.2c11.3,25.1,22.9,50,34.8,74.8
					c-15.9-23.8-31.1-48.1-45.4-72.7c-3.1,2-6.2,4.1-9.3,6.2c13.9,23.9,28.6,47.3,44.1,70.4c-17.3-21.8-33.7-44.2-49.1-67.1
					c-4.3,2.8-8.7,5.4-13.3,7.5c-33.4,15.2-68.7,11.1-98.4,36.7c-14.8,12.5-25.9,24.3-39.6,33.8c6.5,24.1,15.5,53.8,15.5,53.8
					c-8.1-16.2-15.8-32.6-23.1-49c-9,5.1-19.3,9.2-32.6,11.2c-38.8,5.5-62.2,15-97.9,15.4c-18.2,0-37.6,7.3-54.7,18.2
					c18.3,18,37.4,35.3,57.4,51.7c-22.8-13.9-45-29-66.5-45.3c-25.5,19.7-42.9,48.5-26,76.1c-0.6,0,55.9,47.1,115.4,51.3
					c32.9,2.7,61.8,0.2,84.4-3.3c10.5-30.9,19.9-62.2,28.1-93.8c-0.4,29.7-0.9,59.4-1.6,89c5.6-1.1,10.5-2.2,14.5-2.9
					c21.3-4.2,53.6,12.1,95.1-2.4c31.5-11.2,50-36.9,70.5-49.6c4.5-34,7.4-68,8.9-102c4.3,31.4,7.9,62.9,11,94.4
					c0.2,0,0.3-0.1,0.4-0.1c31.3-4.2,36.7,20.8,55.5,20.9c19-0.3,29.8-20.2,59.5-20.8c3-0.1,5.9-0.2,8.6-0.3
					c19.6-39.6,35.3-80.4,47.3-121.5c-6.4,40.3-16.1,80.8-29,120.8c15.1-0.6,28.5-0.1,51.3,1.4c17.4,1.4,52.7-27.2,80.5-63.7
					c6.1-7.7,11.8-15.8,17.1-23.9V0H1187.2z"/>
			</g>
			<g>
				<path fill="#5B895C" d="M1349.5,54c-31.6,9-63.1,15-94.4,18.1c-15,47.4-35.2,94-60.8,138.8c7.9-4.3,17.1-8,29.9-8.3
					c3-0.1,5.9-0.2,8.6-0.3c19.6-39.6,35.3-80.4,47.3-121.5c-6.4,40.3-16.1,80.8-29,120.8c15.1-0.6,28.5-0.1,51.3,1.4
					c1.8,0.1,3.7-0.1,5.9-0.6C1327,153.6,1340.7,103.8,1349.5,54z"/>
			</g>
			<path fill="#3E6441" d="M1109.2,202.5c15-1.8,24,2.7,31.4,8.1c3-43.1,3.7-86,2.2-128.7c-22.7,8.6-45.9,15.6-69.6,20.9
				c-21.9,10.6-44.7,19.9-68.3,27.5c-1.3,44.9-4,89.8-8.3,134.6c6.9-0.9,14.2-2.5,21.6-5.1c31.5-11.2,50-36.9,70.5-49.6
				c4.5-34,7.4-68,8.9-102c4.3,31.4,7.9,62.9,11,94.4C1108.9,202.6,1109,202.5,1109.2,202.5z"/>
			<g>
				<path fill="#3E6441" d="M1004.9,130.3c-11.7-29.3-22.6-58.9-32.6-88.6c-3.2,1.4-6.4,3-9.6,4.9c9.2,28.6,19.2,57,30,85.3
					C996.8,131.4,1000.8,130.9,1004.9,130.3z"/>
				<path fill="#3E6441" d="M981.1,38.2c10.7,28.2,22.4,56.2,34.8,83.9c22-4.6,43.6-10.5,64.6-17.8c-15.3-26.6-29.8-53.6-43.3-81
					C1018.4,29.9,999.1,32,981.1,38.2z"/>
				<g>
					<path fill="#5B895C" d="M940.6,148c4.9-1.3,9.7-2.7,14.5-4.2c-7.7-24.5-14.9-49.1-21.5-73.8c-4.9,4.5-9.6,8.8-14.5,12.8
						C925.7,104.6,932.9,126.3,940.6,148z"/>
				</g>
			</g>
			<path fill="#3E6441" d="M878.6,174.6c-22.4-18.4-43.5-38-63.3-58.4c-13.6,2.7-27.2,4.9-43.3,4.9c-5.5,0-11.1,0.7-16.7,1.9
				c24.1,21.6,49.7,41.9,76.5,60.5c-15.4,5.4-31.3,10.1-47.6,14.1c-9.1,22.3-18.7,44.3-28.8,66.1c13.5,4.8,28,8.4,42.4,9.6
				c13.2,1.1,25.8,1.3,37.6,1C854.2,236.9,879,174.7,878.6,174.6z"/>
			<path fill="#ABC169" d="M1400,27.2c-55.2,12.8-101.8,21-140.4,28.2c-79.4,13.4-124.7,22.1-125.2,23.2
				c-106.2,29.6-205.9,71.3-294.1,98.9c-85.7,28.7-159.8,43.3-158,44.3c-1.7-1,79.7-10.5,168.4-37.7
				c91.5-25.2,190.2-68.1,287.6-90.5c74.3-15.7,171-16.6,261.7-33.1c0,0,0.1,0,0.1,0V27.2z"/>
		</g>
		<g>
			<g>
				<path fill="#4F7950" d="M1286.9,59.4c-36.7-28-88-45.4-139.2-59.4H948.7c3.6,12.8,8.8,26.3,15.5,38.7
					c15.5,30.2,39.4,53.3,56.8,54.1c23,0.8,36.6,2,51.3,4.4c4.1-31.8,8.6-63.9,14.1-96.9c0.1,34.3,1.6,67.4,3.7,100
					c2.7,0.5,5.4,1,8.4,1.5c29.3,5.2,30.1,22.3,47.7,26.6c17.6,4.3,36.4-13.3,63.1-1.2c0.1,0.1,0.2,0.1,0.4,0.2
					c20.8-22.4,41.6-44.8,62.4-67.2c-16.2,26.3-32.5,52.6-48.8,79c10.4,16.2,9.5,41.3,23.9,62.9c18.8,28.4,47.7,35.8,54.8,52
					c1.3,3,2.8,6.8,4.3,11.2c22.9-19.8,45.9-39.6,68.8-59.4c-20.6,26.6-41.3,53.4-62.2,80.4c5.3,18,11.2,41,16.9,67.8
					c11.2,46.7,32.2,89.6,31.7,90C1408.7,297.8,1423.5,158.4,1286.9,59.4z"/>
			</g>
			<path fill="#CFCF86" d="M1247.3,26.2c0.8-0.7-24.6-11.8-70.5-26.2h-69c46.2,9.3,91.6,20.4,128.5,36.7
				c101.4,41.9,151.6,127.4,155.2,220.8c7.1,90.3-32.3,188.4-30.1,186.5c-1,0.9,37.8-88.6,38.5-181.7c0.4-46.6-8.9-94-34-134.5
				C1341.3,87,1300.8,53.1,1247.3,26.2z"/>
			<path fill="#7EA46B" d="M957.8,0c13.1,22.9,28.9,33.7,44.2,39.8c2.2-13.1,4.7-26.4,7.3-39.8H957.8z"/>
			<path fill="#7EA46B" d="M1150,0.9c-1.3-0.3-2.5-0.6-3.7-0.9h-132.8c2,15.3,4.5,30.2,7.3,44.7c14.8,2.3,29.6,1.8,44.7,2.2
				c42.6,1.3,79.9,40.6,85,45.2c0.7,0.6,2.7,1.7,5.6,3.1c22-21.4,44-42.8,66-64.3c-15.1,24.3-30.2,48.7-45.3,73
				c23.1,9.3,53,21.7,58.1,27.2c8.1,8.7,24.2,35.1,51.7,56c1.7,1.3,3.5,2.6,5.2,3.8c19.1-17.6,38.2-35.3,57.4-52.9
				c-13.1,21.4-26.4,42.9-39.9,64.6c19.4,12.2,37.1,21.5,47.3,33.7c15.5,15.7,1.2,99.5-3.8,135.1c-2.5,33.5,9.2,72.2,8.6,72.7
				c61.3-176,32.1-273.1-20.4-336.4C1287.4,45.3,1210.5,16.8,1150,0.9z"/>
			<g>
				<path fill="#759964" d="M1320.5,209.4c-2.7-1.6-5.4-3.3-8.2-5c18.1-20,36.1-40,54.2-59.9c1.5,2.7,3,5.5,4.4,8.3
					C1354.1,171.6,1337.3,190.5,1320.5,209.4z"/>
				<path fill="#759964" d="M1395.7,276.9c-0.3,10.9-1.1,22.4-2.4,34.3c-12.2,11-24.5,22.1-36.7,33.1c1.8-12,3.7-25.4,5.1-38.6
					C1373,296.2,1384.4,286.6,1395.7,276.9z"/>
				<path fill="#759964" d="M1338.6,104.9c-10.8,12-47,52.1-64.6,71.5c-10.2-9.4-18.4-19.1-24.9-27.3c23.1-21.5,46.3-43,69.4-64.5
					C1325.5,90.9,1332.2,97.6,1338.6,104.9z"/>
				<path fill="#759964" d="M1349.8,229.3c-3-2.6-6.3-5.1-9.8-7.6c13.9-14.5,27.8-29,41.7-43.4c1.3,3.6,2.5,7.3,3.6,11.1
					C1373.4,202.7,1361.6,216,1349.8,229.3z"/>
				<path fill="#759964" d="M1308.5,75.9c-22.4,21-44.7,42.1-67.1,63.1c-2.6-3.3-4.7-6.1-6.5-8c-3.3-3.5-16.6-9.8-31.8-16.3
					c18.3-24.2,36.5-48.4,54.7-72.6C1275.2,51.6,1292.4,62.7,1308.5,75.9z"/>
				<path fill="#759964" d="M1362.5,253.2c-1.1-7.7-3-13.6-5.8-17c-0.6-0.7-1.2-1.3-1.8-2c11.1-11.4,22.1-22.7,33.2-34
					c1.9,7.9,3.5,16.2,4.8,24.9C1382.7,234.4,1372.6,243.8,1362.5,253.2z"/>
			</g>
		</g>
		<g>
			<g>
				<path fill="#4F7950" d="M743,861.3c-14,26.9-28,53.7-42.1,80.6c4.6,0.5,8.6,1,11.8,1.6c15.3,2.8,27.8,23.5,52.2,36.5h91.5
					c17.3-17.3,34.6-34.6,51.9-51.8c-11.6,17.3-23.2,34.6-34.8,51.8h89c-17-25.8-35.7-49-56.9-66.4
					c-127.7-110.3-260-63.9-391.5,15.6c0.3-0.6,46.9,10,94.9,10.2c27.4-0.7,51.2-0.2,69.9,0.9C700.4,913.7,721.7,887.4,743,861.3z"
					/>
			</g>
			<path fill="#CFCF86" d="M939.3,957.7c5.3,7,10.5,14.5,15.5,22.3H972c-15.1-23.8-24.6-36.1-25-35.4
				c-38.5-45.9-80.7-77.6-126.1-92.3c-45.1-15.1-93.4-13.3-138.7-2.2c-90.5,22.1-168.7,80.3-168.1,79.1c-1.4,2.6,85.1-58.2,174.7-72
				C780.5,839.3,875.3,868.6,939.3,957.7z"/>
			<path fill="#7EA46B" d="M717.6,886.3c14.2,7.2,27.4,22.2,43.7,38.4c18-18.1,35.9-35.9,53.7-53.6c-12.8,22.7-25.6,45.3-38.4,68
				c1.6,1.4,3.2,2.8,4.9,4.2c25.7,21.2,53.9,30.9,65.1,36.8h91.9c3.3-3.3,6.5-6.5,9.8-9.8c-2,3.3-3.9,6.5-5.9,9.8h19.5
				c-27.9-41-65.2-81.8-115.6-108c-73.6-36.6-174.8-42.8-332,57.2c1.6-0.6,41.2,1.7,72.7-8.2C620.4,907.9,698.7,874.8,717.6,886.3z"
				/>
			<g>
				<path fill="#759964" d="M752,915.3c2.2,2.2,4.4,4.5,6.8,6.8c15.3-22.2,30.6-44.3,45.9-66.5c-3-0.8-6-1.6-9.1-2.3
					C781,874,766.5,894.6,752,915.3z"/>
				<path fill="#759964" d="M668.9,857.6c-10.6,2.8-21.5,6.2-32.8,10.2c-7.9,14.4-15.9,28.9-23.8,43.3c11.3-4.5,23.9-9.5,36.4-13.8
					C655.4,884.1,662.2,870.8,668.9,857.6z"/>
				<path fill="#759964" d="M849.5,873.8c-9.2,13.3-40,57.7-54.8,79.3c11.5,7.7,22.8,13.5,32.3,17.9c15.6-27.4,31.2-54.9,46.9-82.3
					C866.1,883.3,858,878.3,849.5,873.8z"/>
				<path fill="#759964" d="M725.8,891.4c3.2,2.3,6.4,4.9,9.6,7.8c10.9-16.8,21.8-33.7,32.7-50.5c-3.8-0.4-7.7-0.7-11.6-0.9
					C746.3,862.3,736.1,876.8,725.8,891.4z"/>
				<path fill="#759964" d="M894.2,980c11.6-14,23.3-28,34.9-42c-13.3-14.8-28-28.9-44.6-41.6c-15.3,26.6-30.7,53.2-46,79.8
					c3.2,1.4,5.9,2.7,8,3.8H894.2z"/>
				<path fill="#759964" d="M699.7,884.5c7.7-0.7,13.9-0.2,17.9,1.8c0.8,0.4,1.6,0.8,2.3,1.3c8.5-13.4,17-26.8,25.5-40.1
					c-8.2-0.1-16.6,0.3-25.3,1C713.3,860.5,706.5,872.5,699.7,884.5z"/>
			</g>
		</g>
		<g>
			<g>
				<path fill="#3E6441" d="M504.7,439.9c-9.9,14.4-42.2,22.6-75.9,19.8c-33.7-2-68.8-14.9-81.6-25.2c0,0-0.9-2.5-2-7
					c28.7-25.8,69.9-68.3,116.7-114.8c47-45.7,99.7-95.5,154.4-116.4c156.1-64,266.9,22,366.3,139.1c-0.1-0.7-47.6-5.4-93.2-20.5
					c-25.8-9.4-48.5-16.4-66.5-21.4c-11.9-31.9-23.8-63.7-35.6-95.2c4.8,29.9,9.5,59.9,14.3,89.8c-4.5-1-8.5-1.8-11.7-2.2
					c-17.5-2.5-39,18.2-73.1,19.2c-26,0.9-46.8-13.1-66.1-12.8c-13.8-27.8-27.7-55.5-41.5-83.1c8.1,29.4,16.2,58.9,24.3,88.4
					c-0.1,0.1-0.2,0.1-0.4,0.2c-24.4,16.3-19.3,41.6-32.2,54.3c-12.9,12.7-27.8,4.4-47.7,26.6c-2,2.2-3.9,4.3-5.7,6.3
					c-28.8-15.4-57.7-31.5-87-49.5c25.2,22.1,50.1,42.9,75,63.1C525.7,409.8,517.5,420.8,504.7,439.9z"/>
			</g>
			<path fill="#CFCF86" d="M982.6,335.4c0.5,2.9-62.2-82.2-142.7-123.7c-81.3-46-180.4-48.4-269.4,15.7
				c-67.5,46.2-135.1,132.9-193.2,192.6c-57.7,62.6-106,98.1-124.4,110.2c-4.5,3.1-13.3,0-20.3-7.5c0,0,0,0,0,0
				c-7.8-8.3-10.4-18.2-5.5-21.3c88-56.6,170.8-143.1,234-200.3c62.8-59.6,106-90,106.2-88.6c51.1-31.4,101.2-47.9,148.9-47.5
				c47.6,0,92.8,17,132.2,41.9C927.2,256.6,982.8,336.7,982.6,335.4z"/>
			<path fill="#7EA46B" d="M982.6,335.4c-0.1-0.7-39.2-11.1-66.3-30.9c-27.6-23-91.4-79.3-112.9-74.4c-15.8,2.3-33,12.4-53.6,22.5
				c-11.3-22.8-22.6-45.5-33.9-67.9c4.9,25.5,9.9,51.1,14.8,76.6c-2,0.8-4,1.6-6,2.4c-32.3,12.4-63.2,12.2-74.8,14.5
				c-7.3,1.4-33.6,20.4-53.7,35.1c-12.7-25.6-25.5-51.3-38.2-76.9c6.6,30,13.3,60,19.9,90c-2.7,1.8-4.6,2.9-5.6,3.2
				c-6.6,1.9-59.7,13-83.2,48.5c-8.2,12.6-15.6,25.5-25.4,36.8c-17.8-6.7-35.7-14.2-53.8-22.8c13.3,12.5,26.6,24.6,39.7,36.2
				c-17.8,13.2-43.3,22.6-87.8,12.2c-0.2-1,42.3-68.3,132.6-158.5c45.5-43.1,110.2-93.5,191.4-106.3
				C767.3,164.3,865.2,190.6,982.6,335.4z"/>
			<g>
				<path fill="#759964" d="M761.5,246.7c-2.8,1.4-5.6,2.9-8.6,4.3c-7.5-25.9-14.9-51.8-22.4-77.6c3.1,0.2,6.2,0.4,9.4,0.7
					C747.1,198.3,754.3,222.5,761.5,246.7z"/>
				<path fill="#759964" d="M858.6,218.4c9.2,6,18.5,12.7,27.9,20.1c2.9,16.2,5.9,32.4,8.8,48.6c-9.3-7.9-19.7-16.6-30.1-24.6
					C863,247.8,860.8,233.1,858.6,218.4z"/>
				<path fill="#759964" d="M682.2,176.3c4.5,15.6,19.6,67.4,26.7,92.6c-13.4,3.7-25.9,5.6-36.3,6.7c-6.1-31-12.2-62-18.3-92.9
					C663.4,180.1,672.7,177.9,682.2,176.3z"/>
				<path fill="#759964" d="M793.9,232.3c-3.8,1.2-7.6,2.7-11.6,4.4c-5-19.4-10-38.9-15-58.3c3.8,0.8,7.5,1.8,11.3,2.8
					C783.7,198.2,788.8,215.3,793.9,232.3z"/>
				<path fill="#759964" d="M641.7,186.7c6.1,30.1,12.2,60.2,18.3,90.2c-4.2,0.4-7.6,0.8-10.2,1.3c-4.7,0.9-17.1,8.9-30.6,18.5
					c-11-28.3-22-56.5-32.9-84.8C603.6,202.1,622.1,193.4,641.7,186.7z"/>
				<path fill="#759964" d="M820.9,234.1c-7.1-3.1-13.1-4.6-17.5-4c-0.9,0.1-1.7,0.3-2.6,0.5c-3.8-15.4-7.6-30.8-11.5-46.1
					c7.8,2.5,15.7,5.5,23.7,9C815.6,207,818.2,220.5,820.9,234.1z"/>
			</g>
		</g>
		<g>
			<path fill="#7EA46B" d="M316.1,341.3l-58.9,16.2l55.6-27.4c-10.8-32.3-32.9-61.2-58.5-63c0,0-47.6,17.5-69.9,55.6
				c-12.6,21.4-22.1,42.2-29.3,59.1l55.2,85.1l-63.7-64.9c-1.8,4.3-3.4,8.1-4.9,11.1c-7.7,16.3-35.3,23.2-50.6,55.7
				c-11.7,24.9-8.8,54.1-16.1,73.9l48.9,89.6l-59.1-74.6c-0.1,0.1-0.2,0.2-0.3,0.3c-21.1,16.6-38.5-2.7-52.7,3.9
				c-5.5,2.6-8.7,7.3-11.9,12.6v247.4c29.4-3.7,57.8-14,79.1-32.9c5-4.4,9.8-9.3,14.6-14l-37.7-53.9l56.9,38.9
				c21-11.5,48.1-10.8,66.7-25.9c3.9-3.1,7.1-6.8,10-10.7l-69.1-51.2l75.4,41.3c2-3.6,3.9-7.3,5.7-11L128.1,664l76.6,32.7
				c2.5-5,5.1-10,8.1-14.7c21.3-33.5,52.8-55.6,57.2-97.9c2.1-20.6,1.2-37.8,2.7-55c-21.3-12.5-47.7-27.9-47.7-27.9l48.8,18.8
				c1.6-10.5,4.6-21.3,10.1-33c16.2-34.4,18.5-59.5,31-89.3C321.4,382.3,321.1,361.7,316.1,341.3z"/>
			<path fill="#759964" d="M64.6,558.1c-10.1,7.9-19.3,7.7-27.8,5.9l61.4,111.5l48.6-50.9l35.7-61.5l-81.9-109.7
				c-3.4,4.4-6.6,9.5-9.4,15.4c-11.7,24.9-8.8,54.1-16.1,73.9l48.9,89.6l-59.1-74.6C64.8,557.9,64.7,558,64.6,558.1z"/>
			<g>
				<path fill="#759964" d="M182.5,563.2l80,48.7c1.6-3.5,2.9-7.1,4.1-10.8L190,554.4L182.5,563.2z"/>
				<path fill="#759964" d="M257.8,621.1l-78.1-44.7l-39.6,50.7l79.9,44.4C232.8,654,247.5,639,257.8,621.1z"/>
				<path fill="#5B895C" d="M212.9,508.2l-6,12.8l64.6,40.4c0.2-7,0.3-13.8,0.6-20.4L212.9,508.2z"/>
			</g>
			<path fill="#759964" d="M227.7,445.9l74.4-9.6c3.7-12.8,7.3-25.3,12.9-38.7c1.9-4.6,3.2-9.7,4-15.1l-76.8,23.2l6.7-45l-44.5-62.4
				c-7.4,6.9-14.5,15-19.9,24.4c-5,8.6-9.6,17.1-13.7,25.3C192.8,385.4,227.7,445.9,227.7,445.9z"/>
			<path fill="#ABC169" d="M254.4,267.1c0,0-3.6,273.4-157.5,396.2C70.2,684.6,36.6,700.8,0,713.1v22.5
				c71.9-28.8,107.1-60.7,107.1-60.7C273.2,528.1,254.4,267.1,254.4,267.1z"/>
		</g>
		<g>
			<path fill="#5B895C" d="M251.9,797.2c-18.9,24,27.6,132.7,48.5,154.8c0,0,2.6,0.4,7.1,0.8c50.4-64.7,131.6-189.3,116.2-303.9
				c-22-164.2-104.5-260.1-177.5-340c0,0-20.8,46.2-9.4,88.9c6.4,24,14.6,45.3,21.6,62.4l99.4,20.3l-90.9-0.1
				c1.8,4.3,3.3,8.1,4.5,11.3c6.2,16.9-8.2,41.4,4.3,75.2c9.5,25.8,32.4,44.2,41.4,63.3l98.2,28l-94.6-10.1c0,0.1,0,0.3,0,0.4
				c-3,26.7-28.9,25.6-34.2,40.3c-5.2,14.7,10.4,28.1-0.3,51.3c-1.1,2.3-2.1,4.5-3.1,6.6l86.2,78.2l-93-64.2
				C270.4,771.7,264.2,781.5,251.9,797.2z"/>
			<path fill="#E4D56F" d="M418.2,699c-10.2,97.9-90.6,206.9-156.3,281h40.8c125.7-152,131-280.2,131-280.2
				c11.8-221.3-187.5-391-187.5-391S438.6,503.1,418.2,699z"/>
			<path fill="#7EA46B" d="M246.2,308.8c0,0-8.7,37,6.5,60.7c15.2,23.7,71.1,77.9,71.1,99.9c0,15.9-6.2,34.5-9.6,56.4l76.5,22.8
				l-78.5-2.6c-0.1,2.1-0.1,4.2-0.1,6.3c0,33.9,15.2,64.3,18.6,76.2c2.1,7.5-2.4,36.4-5.7,58.5l91.3,25.7l-94-5.6
				c-0.3,2.9-0.3,5-0.1,6c1.7,6.8,18.6,60.9-5.1,89.7c-8.3,10.1-17.5,19.4-24.5,30.8l39.5,49.6l-47.2-33.6
				c-6.8,19.7-6.8,46.3,8.5,88.6c0,0,69.4-52.5,111.7-155.7C447.4,679.3,431,495.3,246.2,308.8z"/>
			<g>
				<path fill="#759964" d="M316.5,513.3c-0.6,3-1.2,6-1.7,9.1l81.7,10c-1.2-3-2.3-6.1-3.6-9.2L316.5,513.3z"/>
				<path fill="#759964" d="M333.1,413c-5.6-8.1-11.4-16.2-17.6-24.4l-49.1-1.1c6.6,7.9,14.3,16.8,21.9,25.9L333.1,413z"/>
				<path fill="#759964" d="M411.8,580.6c-16.6-2-71.9-8.8-98.7-11.9c1.8,13.8,5.6,26.5,9.2,36.9l95.7,3.5
					C416.3,599.8,414.3,590.3,411.8,580.6z"/>
				<path fill="#759964" d="M323.2,479.1c-0.5,3.9-1.2,8-2,12.2l60.3,5.7c-1.7-3.6-3.4-7.2-5.2-10.8L323.2,479.1z"/>
				<path fill="#759964" d="M420.3,622.2l-93.3-4c1.6,4.2,2.9,7.7,3.6,10.3c1.4,4.8,0,18.3-2,33.2l95.8,19.3
					C424.6,662.3,423.3,642.7,420.3,622.2z"/>
				<path fill="#759964" d="M317.8,452.7c3.7,6.5,6,12.2,6,16.7c0,0.9,0,1.8-0.1,2.6l47.4,4.1c-3.8-7.3-7.8-14.6-12.1-22
					L317.8,452.7z"/>
			</g>
		</g>
	</g>
</g>
</svg>
